<?xml version="1.0" standalone="no"?>
<!DOCTYPE svg PUBLIC "-//W3C//DTD SVG 20010904//EN"
 "http://www.w3.org/TR/2001/REC-SVG-20010904/DTD/svg10.dtd">
<svg version="1.0" xmlns="http://www.w3.org/2000/svg"
 width="714.000000pt" height="714.000000pt" viewBox="0 0 714.000000 714.000000"
 preserveAspectRatio="xMidYMid meet">
<metadata>
Created by potrace 1.11, written by Peter Selinger 2001-2013
</metadata>
<g transform="translate(0.000000,714.000000) scale(0.100000,-0.100000)"
fill="#000000" stroke="none">
<path d="M2749 7009 c-5 -3 -25 -4 -44 -3 -24 2 -33 0 -29 -8 5 -7 2 -8 -7 -3
-16 11 -50 14 -44 5 3 -5 -39 -9 -127 -13 -16 0 -28 -3 -28 -7 0 -5 -32 -10
-77 -13 -7 0 -13 -5 -13 -11 0 -6 -4 -5 -9 2 -6 11 -11 10 -25 -3 -9 -9 -16
-11 -16 -5 0 6 -4 8 -10 5 -12 -7 -49 -17 -72 -18 -10 -1 -18 -4 -18 -7 0 -4
-6 -7 -12 -8 -24 -2 -47 -8 -54 -14 -3 -4 -12 -4 -20 -1 -8 3 -14 0 -14 -7 0
-7 -7 -10 -15 -6 -8 3 -15 2 -15 -3 0 -4 -7 -8 -15 -9 -8 -1 -22 -3 -30 -4 -8
-1 -15 -5 -15 -9 0 -4 -8 -6 -17 -5 -10 2 -25 -1 -33 -6 -19 -10 -74 -30 -79
-28 -2 1 -7 -3 -10 -9 -4 -5 -20 -12 -36 -15 -16 -3 -31 -10 -33 -16 -2 -5 -8
-8 -13 -4 -5 3 -9 0 -9 -6 0 -6 -4 -8 -10 -5 -5 3 -10 1 -10 -4 0 -6 -3 -10
-7 -9 -5 1 -18 -3 -29 -10 -12 -6 -24 -8 -28 -5 -3 3 -6 1 -6 -6 0 -7 -4 -9
-10 -6 -5 3 -10 3 -10 -2 0 -9 -101 -58 -113 -55 -5 1 -6 -2 -3 -7 4 -5 -10
-15 -29 -22 -19 -7 -35 -17 -35 -22 0 -4 -4 -6 -9 -3 -5 3 -11 -1 -15 -9 -3
-8 -12 -15 -21 -15 -8 0 -15 -5 -15 -12 0 -6 -3 -9 -6 -5 -6 5 -15 0 -49 -31
-8 -7 -15 -11 -15 -7 0 4 -7 0 -15 -8 -8 -8 -30 -25 -50 -37 -19 -12 -35 -26
-35 -31 0 -5 -5 -9 -10 -9 -6 0 -19 -8 -29 -17 -11 -10 -33 -29 -51 -43 -17
-14 -47 -40 -66 -59 -19 -19 -34 -30 -34 -26 0 4 -9 -2 -20 -15 -11 -13 -20
-28 -20 -33 0 -6 -3 -8 -6 -4 -8 8 -34 -18 -34 -33 0 -6 -4 -9 -9 -5 -5 3 -12
-4 -16 -15 -4 -11 -11 -18 -16 -15 -5 4 -9 2 -9 -3 0 -5 -15 -24 -32 -43 -18
-19 -32 -37 -30 -41 1 -5 -5 -8 -13 -8 -8 0 -14 -6 -13 -12 2 -7 -2 -12 -9
-11 -6 2 -15 -7 -19 -19 -3 -11 -21 -36 -40 -55 -19 -18 -34 -37 -34 -41 0 -4
-10 -17 -20 -30 -11 -12 -20 -27 -20 -32 0 -6 -4 -10 -10 -10 -5 0 -10 -7 -10
-15 0 -9 -7 -18 -15 -21 -8 -4 -12 -10 -9 -15 3 -5 1 -9 -4 -9 -9 0 -37 -53
-30 -57 1 -2 -7 -10 -20 -18 -12 -9 -20 -21 -17 -26 4 -5 1 -9 -5 -9 -6 0 -8
-4 -5 -10 3 -5 2 -10 -4 -10 -5 0 -13 -10 -17 -22 -3 -13 -12 -30 -19 -38 -8
-8 -14 -18 -15 -22 -3 -22 -13 -37 -23 -31 -5 3 -8 2 -4 -3 3 -5 -3 -27 -13
-49 -10 -22 -16 -44 -13 -49 4 -5 1 -6 -5 -2 -11 6 -16 -6 -13 -26 0 -5 -4 -8
-10 -8 -6 0 -9 -7 -5 -15 3 -8 0 -15 -6 -15 -6 0 -8 -3 -5 -7 4 -3 -1 -12 -11
-20 -10 -9 -11 -12 -2 -7 10 5 8 -1 -5 -16 -11 -13 -15 -20 -8 -17 6 4 2 -11
-9 -34 -10 -22 -20 -49 -21 -60 -1 -10 -4 -19 -8 -19 -4 0 -10 -18 -14 -40 -4
-22 -11 -40 -15 -40 -5 0 -7 -9 -5 -20 2 -11 -1 -22 -6 -25 -5 -4 -7 -11 -4
-16 4 -5 2 -9 -2 -9 -5 0 -9 -8 -10 -17 -1 -10 -4 -31 -8 -48 -3 -16 -7 -38
-8 -47 -1 -10 -4 -18 -7 -18 -3 0 -7 -14 -8 -32 -2 -17 -7 -37 -13 -44 -7 -8
-6 -14 3 -17 9 -4 10 -8 3 -14 -6 -4 -10 -15 -10 -23 1 -8 -1 -19 -4 -24 -2
-5 -6 -23 -7 -40 -1 -17 -5 -51 -8 -76 -3 -25 -6 -66 -7 -92 0 -27 -5 -46 -9
-43 -5 3 -5 -8 0 -25 6 -21 5 -30 -3 -30 -8 0 -8 -3 1 -8 9 -7 10 -15 3 -35
-6 -15 -7 -27 -3 -27 4 0 7 -14 8 -30 1 -17 -2 -30 -7 -30 -4 0 -4 -13 1 -29
4 -15 4 -34 0 -41 -5 -7 -5 -23 -1 -34 7 -19 12 -73 15 -158 1 -16 4 -28 8
-28 4 0 5 -12 2 -26 -3 -14 -1 -23 3 -21 4 3 8 -11 7 -31 0 -21 2 -41 5 -47 2
-5 7 -23 9 -40 7 -56 9 -70 11 -70 4 0 12 -40 12 -57 0 -10 4 -18 9 -18 5 0 7
-9 5 -20 -2 -11 0 -20 5 -20 5 0 7 -9 5 -20 -2 -11 1 -20 7 -20 6 0 8 -11 5
-26 -2 -15 0 -28 8 -30 6 -3 12 -11 13 -19 1 -8 3 -22 4 -30 1 -8 4 -15 8 -15
3 0 6 -10 7 -22 1 -11 6 -24 10 -27 4 -3 10 -17 11 -31 2 -14 8 -29 13 -35 5
-5 9 -17 9 -27 0 -10 5 -18 11 -18 5 0 7 -4 4 -10 -3 -5 -2 -10 4 -10 6 0 8
-7 5 -15 -4 -8 -1 -15 5 -15 6 0 11 -9 11 -20 0 -11 5 -20 10 -20 6 0 10 -9
10 -20 0 -11 5 -20 11 -20 6 0 9 -6 6 -14 -3 -8 1 -17 9 -20 8 -3 14 -15 14
-26 0 -11 5 -20 10 -20 6 0 10 -8 10 -17 0 -9 10 -28 23 -41 12 -14 15 -22 7
-18 -9 5 -8 2 2 -7 10 -8 15 -17 11 -20 -3 -4 -1 -7 5 -7 7 0 12 -7 12 -15 0
-8 5 -15 11 -15 5 0 7 -5 4 -10 -3 -6 1 -13 9 -16 9 -3 13 -10 10 -15 -3 -5 2
-12 10 -15 9 -3 16 -12 16 -20 0 -8 5 -14 11 -14 5 0 8 -4 5 -8 -3 -5 6 -20
20 -35 14 -15 21 -27 17 -27 -4 0 5 -11 20 -24 16 -14 28 -28 28 -33 0 -4 8
-17 18 -28 9 -12 16 -26 13 -33 -3 -11 10 -16 31 -13 4 0 7 -6 7 -14 0 -8 16
-29 35 -48 19 -19 35 -39 35 -46 0 -6 4 -11 9 -11 4 0 22 -13 39 -30 18 -16
29 -30 26 -30 -3 0 11 -17 32 -38 20 -20 41 -36 46 -35 4 2 7 -1 5 -5 -4 -16
65 -73 82 -67 8 3 12 3 9 -1 -7 -6 20 -39 31 -39 3 0 19 -12 36 -28 67 -61 75
-67 75 -60 0 4 4 4 8 -2 13 -18 56 -50 47 -36 -5 10 -4 12 3 7 7 -4 12 -14 12
-22 0 -8 4 -13 9 -9 5 3 16 -2 24 -10 9 -8 21 -15 27 -15 6 0 13 -7 16 -15 4
-8 10 -12 15 -9 5 3 9 0 9 -6 0 -6 4 -9 9 -6 5 4 11 2 13 -2 4 -10 122 -78
125 -72 1 3 9 -4 18 -15 9 -11 13 -13 9 -6 -5 9 5 6 23 -7 17 -12 38 -22 46
-22 8 0 17 -7 21 -15 3 -8 12 -12 21 -9 8 3 15 1 15 -5 0 -6 6 -11 13 -11 7 0
32 -9 55 -20 22 -11 48 -20 56 -20 8 0 16 -4 18 -10 2 -5 12 -11 23 -13 11 -1
26 -6 33 -10 6 -5 12 -5 12 -1 0 4 10 -1 22 -12 12 -10 18 -13 14 -6 -4 7 7 4
27 -7 27 -15 38 -17 47 -8 10 9 11 9 6 -1 -6 -11 18 -18 47 -13 4 0 7 -4 7
-10 0 -6 6 -9 14 -6 8 3 17 3 20 -1 7 -6 13 -8 66 -18 19 -3 40 -10 47 -15 7
-7 14 -6 18 2 6 8 9 8 15 0 4 -7 23 -13 43 -14 21 -1 37 -5 37 -9 0 -3 14 -5
30 -4 17 1 30 -1 30 -5 0 -4 10 -6 22 -4 12 3 26 -1 30 -8 6 -9 8 -9 8 2 0 11
3 11 17 0 15 -12 16 -12 8 1 -8 13 -7 13 8 1 9 -7 17 -11 17 -7 0 3 11 1 25
-4 17 -7 25 -6 25 1 0 8 4 8 13 2 6 -5 31 -9 55 -9 23 1 42 -3 42 -7 0 -4 9
-3 19 3 14 7 21 6 24 -3 4 -8 6 -9 6 0 1 8 10 9 29 3 16 -4 36 -4 45 2 10 5
17 5 17 0 0 -11 30 -9 49 2 8 5 16 4 20 -3 6 -8 15 -9 34 -2 19 7 27 7 27 0 0
-6 5 -7 12 -3 6 4 37 9 67 11 50 3 92 8 99 13 7 5 49 3 59 -3 7 -4 16 0 22 10
7 12 10 13 11 4 0 -9 4 -10 13 -5 6 5 23 9 37 9 14 0 31 7 38 15 9 10 11 10 6
1 -5 -10 -1 -11 17 -6 13 4 30 12 37 17 8 7 12 7 12 -2 0 -9 4 -9 13 -3 6 6
22 9 35 8 12 -1 22 3 22 8 0 5 7 7 15 3 8 -3 15 -2 15 3 0 4 6 8 13 9 22 2 42
7 56 16 11 7 12 6 6 -5 -7 -11 -6 -12 7 -2 8 7 18 10 21 6 4 -3 7 -1 7 6 0 7
5 9 10 6 6 -3 10 -2 10 4 0 5 9 8 20 6 11 -2 20 -1 20 3 0 7 16 11 57 14 7 1
10 5 7 10 -3 4 2 9 10 9 16 1 28 4 44 9 4 1 10 2 15 1 4 0 7 4 7 10 0 5 5 7
10 4 6 -3 10 -1 10 6 0 7 3 9 7 6 3 -4 12 -2 20 5 7 6 16 8 19 5 4 -3 13 1 21
9 8 8 19 12 24 9 5 -4 9 -1 9 5 0 6 5 8 10 5 6 -3 10 -3 10 2 0 11 51 34 61
27 5 -3 9 0 9 5 0 6 7 11 15 11 9 0 18 6 21 14 3 8 12 12 20 9 8 -3 14 0 14 6
0 6 3 10 8 10 19 -3 33 2 28 10 -5 8 40 26 57 23 4 -1 7 3 7 8 0 6 11 15 25
20 14 5 25 14 25 20 0 5 6 10 14 10 8 0 22 7 30 16 9 8 16 13 16 9 0 -4 7 0
15 7 34 31 45 38 45 31 0 -4 4 -3 8 2 4 6 23 22 42 35 19 13 39 30 43 37 5 7
12 11 18 8 5 -4 12 0 15 8 6 17 40 15 36 -2 -1 -6 5 -14 13 -17 8 -4 15 -11
15 -16 0 -6 13 -22 28 -36 16 -15 31 -35 35 -45 4 -10 12 -15 18 -12 6 4 5 -2
-3 -14 -7 -12 -20 -21 -28 -21 -13 0 -13 -1 0 -10 13 -8 12 -10 -2 -10 -19 0
-65 -40 -61 -52 2 -5 -1 -7 -5 -5 -5 1 -28 -15 -52 -36 -28 -24 -37 -37 -26
-37 10 0 15 -4 12 -8 -6 -10 30 -52 44 -52 6 0 9 -3 9 -7 -3 -19 2 -33 12 -33
6 0 17 -7 25 -15 9 -8 12 -15 7 -15 -4 0 2 -10 14 -22 54 -55 73 -78 66 -78
-4 0 6 -9 22 -20 17 -11 27 -20 23 -20 -5 0 0 -8 10 -18 58 -62 89 -101 84
-106 -3 -3 2 -6 10 -6 9 0 23 -15 32 -32 8 -18 16 -29 16 -25 0 10 30 -18 30
-28 0 -3 11 -17 25 -31 14 -14 25 -29 25 -34 0 -6 7 -10 15 -10 8 0 15 -4 15
-9 0 -9 35 -53 75 -95 12 -11 24 -29 28 -39 3 -9 14 -17 23 -17 10 0 14 -3 11
-7 -4 -3 9 -21 28 -40 19 -19 35 -37 35 -41 0 -4 9 -14 19 -22 11 -7 18 -17
15 -22 -3 -4 2 -8 10 -8 9 0 16 -5 16 -11 0 -7 14 -25 30 -41 17 -15 30 -32
30 -36 0 -4 11 -16 25 -26 13 -10 22 -22 20 -27 -3 -4 4 -11 16 -14 11 -4 18
-9 15 -12 -5 -5 8 -20 91 -107 17 -19 29 -37 26 -40 -4 -3 1 -6 11 -6 9 0 14
-5 11 -10 -3 -6 1 -13 9 -16 9 -3 16 -10 16 -14 0 -5 19 -28 43 -53 23 -24 58
-63 77 -87 19 -23 42 -50 51 -61 9 -10 22 -19 28 -19 7 0 10 -4 7 -9 -3 -5 17
-32 44 -60 27 -28 48 -51 45 -51 -2 0 8 -13 23 -29 15 -16 38 -42 52 -59 23
-27 87 -101 148 -169 12 -14 22 -30 22 -34 0 -5 7 -9 17 -9 9 0 13 -3 10 -7
-4 -3 6 -19 22 -34 16 -15 27 -29 25 -32 -2 -2 3 -4 11 -4 9 0 31 15 50 33 19
17 36 30 38 27 3 -2 15 10 27 27 12 17 24 29 26 27 3 -2 27 18 54 44 28 27 52
49 55 49 2 0 15 10 28 23 44 42 89 77 98 77 5 0 8 3 7 8 -3 7 38 52 47 52 3 0
10 0 15 0 6 0 9 4 8 9 -2 5 -1 8 2 7 10 -2 38 29 33 37 -2 4 1 7 8 7 6 0 22
12 35 27 13 16 24 25 24 21 0 -3 21 13 47 38 27 24 52 44 57 44 13 0 -57 89
-127 161 -15 16 -25 29 -23 29 3 0 -13 18 -35 40 -22 22 -38 40 -35 40 3 0 -2
8 -11 18 -10 11 -21 17 -25 15 -5 -2 -8 3 -8 11 0 9 -4 16 -10 16 -5 0 -10 5
-10 12 0 6 -17 26 -37 45 -21 18 -34 33 -30 33 4 0 -12 19 -37 43 -26 24 -46
47 -46 52 0 5 -11 19 -23 30 -13 11 -29 30 -36 43 -7 12 -16 20 -20 18 -4 -3
-13 6 -19 19 -7 14 -16 25 -22 25 -5 0 -10 4 -10 10 0 5 -16 27 -35 47 -19 20
-35 41 -35 45 0 4 -6 8 -12 8 -7 0 -20 15 -29 33 -9 17 -22 31 -28 30 -6 -2
-10 3 -8 10 1 6 -3 11 -10 10 -6 -2 -15 6 -18 17 -3 11 -22 35 -40 55 -19 19
-32 35 -29 35 2 0 -1 6 -8 14 -7 8 -16 12 -20 9 -5 -2 -8 3 -8 11 0 8 -10 22
-22 30 -12 9 -20 16 -17 16 4 0 -16 23 -42 51 -27 29 -49 59 -49 68 0 14 -2
14 -10 1 -7 -11 -10 -11 -10 -2 0 14 -6 22 -60 82 -19 21 -51 58 -70 81 -19
23 -50 56 -67 74 -18 17 -33 35 -33 39 0 4 -10 17 -22 30 -101 104 -158 172
-158 187 0 5 -4 7 -10 4 -5 -3 -10 -1 -10 5 0 6 -12 24 -27 40 -16 15 -44 46
-63 69 -19 23 -48 57 -65 75 -16 18 -48 54 -69 80 -28 33 -42 43 -51 36 -6 -5
-16 -6 -20 -2 -5 4 -5 2 -2 -4 4 -7 -5 -19 -19 -29 -42 -27 -63 -48 -58 -57 3
-4 -3 -5 -12 -1 -11 4 -15 2 -11 -4 4 -6 -1 -14 -11 -18 -23 -11 -45 -15 -38
-8 3 3 -7 17 -22 29 -15 13 -24 24 -19 24 4 0 -3 10 -15 22 -13 13 -26 22 -30
21 -5 -2 -8 4 -8 12 0 9 -6 18 -13 21 -30 11 -12 57 41 106 12 12 22 25 22 30
0 4 8 17 18 27 50 55 71 81 64 81 -4 0 1 5 11 11 9 5 17 14 17 20 0 5 12 21
26 34 15 14 23 25 18 25 -5 0 0 7 10 15 11 8 17 15 13 15 -4 0 2 10 13 22 11
12 18 28 16 35 -3 7 0 12 7 10 7 -1 11 4 10 11 -2 6 2 12 7 12 6 0 10 6 10 13
0 7 8 22 18 33 9 11 18 26 20 34 2 8 9 18 15 22 7 4 8 8 3 8 -5 0 -3 7 4 15 7
8 9 15 4 15 -4 0 0 6 10 13 9 7 18 22 19 35 0 12 5 22 9 22 4 0 8 6 8 14 0 8
7 17 16 20 8 3 13 10 9 16 -3 5 3 26 13 47 11 21 17 44 14 52 -2 8 0 11 6 7
12 -7 26 40 16 56 -4 7 -3 8 4 4 11 -6 16 6 13 27 0 4 3 7 8 7 5 0 8 6 8 13
-1 24 16 77 25 77 5 0 7 3 5 8 -3 4 0 18 5 32 6 14 12 36 14 49 2 13 6 31 10
40 4 9 9 23 10 31 2 8 6 31 9 50 4 19 7 41 7 48 1 6 6 12 12 12 6 0 4 5 -4 10
-8 5 -10 10 -4 10 9 0 13 17 15 73 0 9 3 17 7 17 4 0 7 17 6 38 0 20 4 45 9
56 7 14 6 17 -5 10 -11 -6 -11 -5 1 9 7 9 11 17 7 17 -3 0 -2 11 3 23 5 13 5
30 1 38 -6 8 -4 16 3 21 9 6 8 8 -2 8 -9 0 -10 4 -4 13 6 6 10 40 9 75 -1 35
2 66 6 68 5 3 5 11 1 17 -4 6 -7 50 -8 97 -1 47 -5 92 -9 98 -4 7 -3 12 3 12
7 0 7 8 2 23 -4 12 -7 33 -6 47 1 14 0 29 -3 35 -3 5 -7 25 -9 45 -4 38 -11
75 -13 75 -2 0 -9 57 -12 93 -1 12 -6 22 -10 22 -4 0 -7 3 -7 8 4 25 -2 72 -9
68 -5 -3 -8 8 -7 25 1 16 -2 32 -7 35 -4 3 -6 10 -3 15 4 5 1 9 -6 9 -6 0 -9
8 -6 20 3 11 1 20 -5 20 -6 0 -8 7 -4 15 3 8 1 15 -5 15 -6 0 -8 3 -6 8 3 4 0
18 -6 32 -5 14 -11 32 -13 40 -2 8 -7 16 -12 18 -6 2 -8 12 -5 22 3 12 0 20
-6 20 -7 0 -10 4 -7 9 3 5 -3 26 -13 48 -32 63 -61 132 -61 143 0 5 -4 10 -10
10 -5 0 -10 9 -10 20 0 11 -5 20 -11 20 -5 0 -7 5 -4 10 3 6 1 10 -6 10 -7 0
-10 3 -6 6 3 4 -1 13 -9 21 -8 8 -12 19 -9 24 4 5 1 9 -4 9 -6 0 -11 9 -11 20
0 11 -7 20 -15 20 -8 0 -14 3 -14 8 3 17 -2 31 -14 44 -7 7 -24 32 -37 56 -13
23 -28 42 -32 42 -5 0 -7 4 -4 9 3 5 -1 14 -9 21 -8 7 -15 20 -15 29 0 14 -2
14 -10 1 -8 -13 -10 -12 -10 4 0 10 -10 27 -22 37 -11 11 -18 19 -14 19 4 0 1
7 -6 15 -7 7 -24 28 -38 45 -14 16 -37 44 -52 62 -16 17 -28 35 -28 40 0 4 -7
8 -15 8 -8 0 -15 5 -15 11 0 7 -11 22 -25 35 -14 13 -25 28 -25 34 0 6 -4 8
-10 5 -5 -3 -10 1 -10 10 0 9 -4 14 -8 11 -5 -3 -15 6 -22 19 -7 13 -16 22
-20 20 -4 -2 -13 7 -20 20 -7 13 -17 22 -21 19 -5 -3 -14 4 -21 16 -7 11 -19
20 -26 20 -7 0 -10 5 -7 10 3 6 1 10 -5 10 -6 0 -24 13 -39 29 -16 16 -32 27
-35 24 -3 -4 -6 -1 -6 6 0 7 -4 9 -10 6 -5 -3 -10 0 -10 8 0 15 -68 63 -82 59
-5 -1 -8 5 -8 14 0 8 -4 13 -9 10 -5 -3 -20 4 -33 17 -14 12 -31 23 -39 25 -7
2 -20 12 -29 22 -10 11 -20 17 -24 13 -3 -3 -6 -1 -6 6 0 7 -4 10 -8 7 -5 -3
-15 4 -22 15 -16 21 -35 26 -25 7 4 -7 -1 -4 -9 6 -9 11 -16 16 -16 11 0 -4
-8 1 -17 12 -10 11 -24 18 -30 16 -7 -3 -13 1 -13 8 0 7 -3 10 -6 6 -4 -3 -13
1 -21 9 -9 8 -23 12 -31 9 -9 -3 -13 -3 -9 1 7 8 -51 39 -65 36 -5 -1 -8 3 -8
8 0 6 -9 10 -19 10 -11 0 -21 5 -23 10 -2 6 -13 12 -26 13 -12 0 -22 5 -22 9
0 4 -9 8 -19 8 -11 0 -23 5 -26 10 -3 6 -15 10 -26 10 -10 0 -19 4 -19 8 0 5
-6 9 -12 9 -21 1 -43 8 -49 15 -3 5 -17 9 -32 10 -15 1 -27 6 -27 11 0 5 -7 7
-15 4 -8 -4 -17 -2 -20 4 -4 5 -11 7 -16 4 -5 -4 -9 -1 -9 6 0 6 -8 9 -20 6
-11 -3 -20 -1 -20 5 0 6 -7 8 -15 4 -8 -3 -15 -1 -15 4 0 5 -7 7 -15 4 -8 -4
-15 -1 -15 6 0 6 -4 9 -8 6 -5 -3 -33 1 -62 9 -29 8 -57 12 -62 9 -4 -3 -8 -1
-8 3 0 5 -11 10 -25 11 -14 1 -36 3 -50 4 -14 1 -25 7 -25 13 0 5 -5 3 -10 -5
-5 -8 -10 -10 -10 -3 0 6 -11 10 -25 8 -14 -1 -28 1 -30 5 -3 4 -18 6 -35 4
-16 -2 -30 1 -30 6 0 6 -9 6 -25 0 -16 -6 -25 -6 -25 0 0 6 -12 10 -26 10 -17
0 -23 -4 -18 -12 5 -9 2 -9 -9 1 -9 7 -17 10 -17 7 0 -4 -10 -2 -21 5 -17 9
-20 8 -14 -2 6 -8 4 -10 -5 -4 -19 12 -80 14 -73 2 4 -6 1 -7 -8 -1 -20 12
-39 14 -39 3 0 -6 -5 -7 -12 -3 -14 9 -136 12 -149 3z m79 -336 c6 -2 12 0 12
5 0 4 11 7 25 7 14 0 25 -3 25 -7 0 -4 11 -3 25 2 17 7 25 6 25 -1 0 -8 5 -7
15 1 10 8 15 9 15 1 0 -7 8 -8 25 -1 14 5 25 6 25 2 0 -4 26 -8 58 -9 85 -2
136 -8 150 -16 7 -5 12 -3 12 5 0 8 3 9 8 3 7 -11 39 -17 95 -18 15 -1 27 -5
27 -10 0 -5 9 -7 20 -4 11 3 23 1 26 -5 3 -5 15 -8 25 -5 11 3 19 2 19 -2 0
-4 6 -8 13 -9 39 -3 57 -7 57 -12 0 -3 12 -7 26 -8 15 -1 39 -8 54 -15 14 -8
34 -13 43 -11 9 1 17 -1 17 -6 0 -4 7 -11 16 -14 10 -4 13 -2 8 6 -4 6 3 4 17
-5 13 -9 32 -17 42 -17 10 0 15 -4 12 -10 -3 -5 0 -7 8 -4 8 3 18 0 22 -5 3
-6 11 -9 16 -6 5 4 9 1 9 -5 0 -6 4 -9 9 -5 5 3 15 -1 23 -8 7 -8 19 -12 26
-9 6 2 15 -3 18 -12 3 -8 12 -12 20 -9 8 3 14 0 14 -7 0 -6 5 -8 12 -4 6 4 17
-1 24 -10 7 -10 16 -18 21 -18 24 -3 43 -11 43 -20 0 -5 5 -6 10 -3 6 3 13 -1
16 -9 3 -9 10 -13 15 -10 5 3 9 0 9 -6 0 -7 7 -10 15 -6 8 3 15 1 15 -5 0 -6
4 -8 9 -5 5 3 11 -1 15 -9 3 -8 26 -24 51 -36 24 -12 42 -25 39 -30 -5 -8 9
-13 21 -6 2 1 11 -7 19 -18 9 -11 16 -16 16 -11 0 4 14 -6 30 -24 17 -18 30
-28 30 -24 1 5 10 -2 20 -15 11 -13 20 -20 20 -16 0 5 11 -4 25 -19 14 -15 25
-24 25 -21 0 4 20 -14 44 -39 24 -25 46 -43 50 -39 3 3 6 1 6 -5 0 -13 77 -92
91 -92 6 0 8 -4 4 -9 -3 -5 5 -17 17 -25 12 -9 19 -16 15 -16 -4 0 7 -13 23
-29 17 -15 30 -33 30 -40 0 -6 5 -11 10 -11 6 0 16 -11 22 -25 6 -14 18 -25
25 -25 8 0 11 -4 8 -10 -3 -5 3 -17 15 -27 11 -10 20 -21 20 -26 0 -4 9 -17
20 -29 11 -12 20 -28 20 -35 0 -7 5 -13 10 -13 6 0 10 -7 10 -15 0 -7 6 -18
14 -22 8 -4 15 -11 16 -15 8 -34 14 -48 21 -48 5 0 9 -7 9 -15 0 -8 5 -15 10
-15 6 0 10 -9 10 -19 0 -11 5 -21 10 -23 6 -2 12 -13 13 -25 0 -12 5 -19 9
-17 7 5 12 -22 6 -29 -2 -1 7 -13 19 -26 12 -13 19 -29 16 -37 -3 -8 0 -14 7
-14 6 0 8 -4 5 -10 -3 -5 -1 -10 4 -10 6 0 11 -9 11 -20 0 -11 4 -20 8 -20 5
0 9 -7 10 -15 1 -8 3 -22 4 -30 1 -8 5 -15 10 -15 5 0 7 -4 3 -9 -3 -5 1 -16
9 -24 8 -8 13 -17 10 -19 -2 -3 1 -18 7 -34 7 -16 14 -40 16 -54 2 -14 6 -32
10 -40 3 -8 5 -19 4 -24 -1 -4 2 -13 7 -20 4 -6 8 -18 7 -26 0 -8 3 -17 7 -20
4 -3 9 -25 10 -48 2 -23 5 -42 9 -42 3 0 5 -10 5 -22 1 -41 9 -73 19 -80 6 -5
5 -8 -4 -8 -11 0 -11 -3 0 -17 12 -15 12 -16 -1 -8 -12 7 -13 6 -4 -6 11 -13
14 -37 17 -134 0 -22 5 -43 10 -46 5 -4 6 -13 1 -20 -13 -21 -14 -59 -1 -59 7
0 6 -4 -3 -10 -11 -7 -11 -10 -2 -10 10 0 10 -5 2 -20 -8 -15 -8 -20 2 -20 10
0 10 -2 -1 -9 -9 -6 -10 -11 -2 -15 6 -4 8 -13 4 -19 -4 -7 -8 -34 -10 -62 -4
-89 -9 -131 -17 -143 -4 -7 -2 -12 6 -12 8 0 9 -3 3 -8 -6 -4 -12 -20 -13 -37
-5 -49 -8 -64 -14 -71 -4 -3 -4 -12 -1 -20 3 -8 -1 -14 -8 -14 -11 0 -11 -3 1
-10 11 -7 11 -10 2 -10 -7 0 -10 -5 -7 -10 4 -6 2 -16 -3 -23 -5 -7 -8 -20 -7
-29 2 -10 -1 -18 -6 -18 -6 0 -8 -4 -5 -9 3 -5 -1 -27 -8 -49 -8 -22 -12 -43
-9 -46 4 -3 1 -6 -6 -6 -8 0 -11 -7 -7 -15 3 -8 1 -15 -4 -15 -5 0 -6 -7 -3
-17 4 -10 2 -14 -4 -10 -7 4 -10 0 -8 -10 1 -10 -5 -27 -14 -37 -13 -16 -13
-18 -1 -11 12 7 13 6 3 -7 -7 -8 -10 -18 -6 -21 3 -4 1 -7 -5 -7 -7 0 -12 -9
-12 -21 0 -13 -4 -18 -12 -13 -7 5 -8 3 -4 -5 5 -7 0 -21 -11 -33 -10 -12 -12
-18 -5 -14 6 4 12 3 12 -2 0 -6 -7 -12 -15 -16 -8 -3 -14 -9 -13 -13 4 -13
-35 -93 -45 -93 -4 0 -6 -4 -2 -9 3 -5 -2 -17 -11 -25 -8 -9 -12 -16 -8 -16 3
0 2 -6 -4 -12 -5 -7 -22 -35 -38 -63 -15 -27 -34 -56 -43 -63 -13 -11 -13 -12
-1 -7 10 4 9 2 -2 -8 -10 -8 -18 -19 -18 -26 0 -6 -4 -11 -10 -11 -5 0 -10 -5
-10 -11 0 -7 -8 -18 -17 -26 -11 -9 -12 -12 -3 -7 9 4 7 -2 -5 -14 -11 -11
-31 -35 -45 -53 -14 -18 -31 -38 -37 -45 -7 -7 -13 -18 -13 -24 0 -6 -4 -8
-10 -5 -5 3 -10 0 -10 -8 0 -8 -11 -23 -25 -33 -14 -10 -25 -24 -25 -31 0 -7
-7 -13 -15 -13 -8 0 -14 -3 -13 -7 2 -5 -23 -34 -55 -66 -31 -33 -57 -56 -57
-53 0 3 -17 -11 -38 -31 -53 -52 -121 -106 -144 -115 -10 -4 -18 -12 -18 -18
0 -5 -7 -10 -15 -10 -8 0 -15 -4 -15 -10 0 -5 -7 -10 -15 -10 -8 0 -15 -4 -15
-10 0 -5 -7 -10 -15 -10 -9 0 -18 -7 -21 -15 -4 -8 -10 -12 -15 -9 -5 3 -9 0
-9 -5 0 -6 -6 -11 -14 -11 -8 0 -16 -4 -18 -9 -1 -5 -10 -11 -18 -13 -8 -2
-23 -12 -32 -22 -10 -10 -18 -16 -18 -11 0 4 -6 3 -12 -2 -28 -22 -148 -83
-148 -76 0 5 -6 1 -13 -7 -7 -8 -19 -16 -27 -18 -31 -6 -70 -25 -70 -34 0 -5
-5 -6 -10 -3 -6 4 -17 1 -25 -5 -8 -7 -15 -9 -15 -5 0 4 -7 2 -15 -5 -8 -7
-22 -10 -30 -6 -9 3 -18 0 -21 -8 -3 -7 -10 -13 -17 -14 -14 -1 -51 -10 -54
-12 -2 -2 -6 -3 -10 -5 -5 -1 -15 -4 -23 -8 -8 -3 -28 -9 -45 -13 -41 -10 -45
-11 -47 -14 -2 -1 -14 -3 -28 -5 -14 -1 -38 -6 -55 -10 -16 -3 -38 -7 -47 -8
-10 -1 -18 -4 -18 -8 0 -3 -16 -5 -35 -4 -19 1 -35 -2 -35 -6 0 -4 -14 -6 -30
-4 -17 2 -28 1 -26 -4 3 -4 -1 -8 -9 -8 -8 0 -12 5 -8 10 3 5 -3 5 -13 -1 -11
-5 -40 -10 -65 -9 -25 0 -50 -2 -55 -5 -5 -3 -21 -4 -36 -2 -16 1 -28 -2 -28
-8 0 -7 -4 -7 -12 0 -14 10 -47 10 -65 -1 -6 -4 -14 -3 -18 3 -3 5 -13 10 -21
10 -9 0 -12 -5 -8 -12 5 -7 3 -8 -7 -2 -14 8 -32 10 -151 16 -38 2 -68 6 -68
10 0 3 -14 4 -31 1 -24 -3 -29 -2 -23 9 6 10 4 10 -9 -1 -10 -7 -17 -9 -17 -3
0 6 -8 9 -17 8 -10 -2 -21 2 -25 8 -5 8 -8 7 -8 -2 0 -10 -5 -10 -21 -2 -11 6
-33 12 -50 12 -16 1 -29 6 -29 11 0 6 -3 7 -7 4 -3 -4 -13 -1 -21 6 -13 10
-14 9 -7 -2 6 -11 4 -13 -11 -7 -10 5 -25 9 -31 9 -7 0 -13 5 -13 10 0 5 -9 7
-20 4 -11 -3 -20 -1 -20 3 0 5 -9 7 -20 5 -11 -2 -20 1 -20 7 0 6 -9 8 -20 5
-13 -3 -18 -1 -13 6 4 6 -2 8 -15 5 -12 -4 -20 -2 -16 3 3 5 -6 9 -20 9 -14 0
-26 4 -26 10 0 5 -6 7 -14 4 -7 -3 -20 1 -27 9 -15 15 -21 17 -45 17 -8 0 -12
4 -9 10 3 5 0 7 -9 4 -15 -6 -62 16 -100 46 -12 9 -16 10 -12 3 4 -7 2 -13 -3
-13 -6 0 -11 4 -11 8 0 5 -19 17 -42 28 -24 10 -45 22 -48 25 -3 4 -12 9 -19
11 -8 2 -23 10 -33 18 -10 8 -22 15 -26 14 -4 -1 -13 6 -20 15 -11 13 -12 13
-7 1 4 -8 -1 -6 -9 4 -9 11 -16 17 -16 13 0 -8 -15 3 -48 34 -9 9 -24 18 -32
21 -30 11 -34 13 -56 33 -13 11 -34 30 -48 43 -14 12 -26 19 -26 15 0 -4 -10
3 -22 15 -45 44 -102 92 -111 92 -4 0 -5 4 -2 10 3 6 2 10 -2 10 -5 0 -18 7
-29 16 -10 8 -13 12 -5 8 9 -5 12 -3 7 4 -4 7 -13 12 -21 12 -7 0 -16 9 -20
19 -3 11 -15 23 -26 26 -10 4 -19 12 -19 20 0 8 -9 17 -20 20 -11 4 -18 10
-15 15 3 4 -2 11 -11 14 -8 3 -12 11 -8 17 4 8 3 9 -4 5 -6 -4 -18 6 -27 24
-9 17 -20 28 -26 25 -5 -4 -8 -1 -7 7 2 7 -2 12 -9 11 -7 -2 -10 6 -8 17 2 12
0 18 -6 15 -5 -4 -12 2 -16 12 -4 10 -17 28 -30 41 -13 12 -21 27 -18 32 3 6
2 10 -4 10 -5 0 -13 9 -16 20 -4 11 -11 18 -16 15 -5 -3 -6 2 -2 11 4 12 3 15
-5 10 -7 -4 -12 -1 -12 7 0 7 -9 23 -19 34 -11 12 -17 24 -14 27 4 3 1 6 -5 6
-7 0 -11 3 -11 8 3 20 -2 32 -13 26 -6 -4 -8 -3 -4 4 3 6 2 13 -4 17 -6 4 -8
11 -5 16 4 5 2 9 -2 9 -5 0 -14 9 -21 21 -11 17 -11 20 0 13 7 -4 5 1 -4 12
-9 10 -18 26 -20 34 -2 8 -9 21 -16 28 -7 8 -10 18 -7 23 4 5 1 9 -4 9 -6 0
-11 9 -11 19 0 10 -7 22 -16 25 -8 3 -13 10 -9 16 3 5 -3 28 -14 50 -10 22
-14 37 -8 33 13 -8 -12 28 -28 39 -6 5 -5 8 4 8 11 0 11 3 1 15 -7 8 -9 15 -5
15 4 0 2 6 -4 13 -6 8 -8 17 -4 20 3 4 2 7 -3 7 -5 0 -11 12 -12 27 -1 15 -5
29 -10 32 -4 3 -9 20 -11 36 -1 17 -8 36 -14 44 -9 12 -9 13 1 7 6 -4 12 -3
12 3 0 5 -4 11 -9 13 -5 2 -11 21 -15 43 -3 22 -8 51 -11 65 -4 14 -7 39 -9
56 -1 17 -6 37 -11 44 -6 9 -4 11 5 5 10 -6 11 -4 4 6 -5 8 -9 17 -10 22 -1 4
-2 8 -3 10 -1 1 -3 35 -5 74 -2 51 0 71 8 66 8 -5 8 -3 0 8 -17 22 -22 54 -12
73 5 9 5 16 0 16 -10 0 -9 30 2 48 4 7 2 12 -4 12 -7 0 -7 7 1 23 7 12 11 24
10 27 -2 3 -8 14 -13 24 -8 15 -7 18 5 13 12 -5 14 -1 8 21 -5 15 -5 37 0 49
5 13 4 25 -1 28 -6 4 -6 14 1 26 6 11 8 27 5 35 -3 8 -1 14 3 14 5 0 8 14 7
30 -1 17 1 30 5 30 4 0 6 10 4 21 -3 12 -1 27 2 33 4 5 8 19 10 31 5 34 8 50
14 60 4 6 5 18 4 28 -2 9 1 17 5 17 5 0 9 8 9 18 2 46 6 62 14 62 5 0 7 7 3
15 -3 8 -1 15 5 15 6 0 7 5 4 10 -3 6 -1 10 5 10 6 0 9 4 6 9 -4 5 3 30 14 55
10 25 17 46 13 46 -3 0 0 7 7 15 6 8 8 20 4 26 -4 7 -3 9 3 6 11 -7 37 59 28
73 -4 6 -1 9 5 8 6 -2 19 15 28 37 10 22 26 56 37 75 10 19 19 39 20 43 0 4 7
12 15 17 8 5 11 10 7 10 -5 0 1 13 12 29 12 16 21 33 21 38 0 5 9 19 20 31 12
12 18 22 14 22 -4 0 3 8 14 19 12 10 19 20 17 23 -3 3 4 13 15 23 11 10 20 21
20 25 0 5 14 22 30 40 17 18 29 34 27 36 -2 3 20 30 50 61 29 31 53 63 53 70
0 7 4 12 8 10 5 -1 29 19 55 46 25 26 51 47 57 47 5 0 9 4 7 8 -3 11 50 62 57
54 4 -3 9 4 13 16 3 12 12 22 19 22 8 0 14 5 14 10 0 6 7 10 15 10 8 0 15 4
15 8 0 5 22 24 50 43 27 19 50 37 50 42 0 4 9 7 21 7 11 0 18 4 15 9 -3 5 8
14 24 21 17 7 30 16 30 21 0 5 7 9 15 9 8 0 15 5 15 10 0 6 5 10 10 10 6 0 28
11 50 25 22 14 40 22 40 18 0 -4 6 1 13 12 8 10 19 15 25 11 7 -4 12 -2 12 4
0 10 33 27 54 28 5 0 12 5 16 12 4 6 13 12 21 14 8 1 24 7 35 14 12 6 24 8 28
5 3 -3 6 -1 6 6 0 7 5 9 10 6 6 -3 10 -1 10 5 0 6 5 8 10 5 6 -3 10 -1 10 5 0
6 5 8 10 5 6 -3 10 0 10 7 0 10 3 9 10 -2 8 -13 10 -12 15 1 6 15 11 17 55 21
11 1 20 7 20 12 0 5 3 6 7 3 3 -4 12 1 20 11 8 9 12 11 8 5 -8 -16 7 -17 23
-1 7 7 12 8 12 4 0 -5 7 -3 15 4 8 7 15 9 15 5 0 -4 11 0 25 9 14 9 25 12 25
7 0 -6 7 -8 15 -5 8 4 13 9 11 13 -3 4 8 6 25 5 16 -1 29 1 29 5 0 4 14 8 31
9 17 1 40 7 50 13 14 7 19 6 19 -2 0 -8 4 -8 15 1 8 7 22 10 30 6 8 -3 15 -1
15 5 0 6 9 8 20 4 12 -4 20 -2 20 5 0 7 6 8 19 0 12 -6 22 -6 25 -1 4 5 17 8
31 6 14 -1 25 1 25 4 0 4 19 6 43 5 23 -1 49 2 57 6 8 5 17 5 20 2 3 -4 11 -8
18 -9z"/>
<path d="M3067 6183 c-4 -3 -17 -7 -29 -8 -37 -4 -38 -4 -38 -16 0 -5 4 -7 10
-4 6 3 7 -1 4 -9 -3 -9 -11 -16 -18 -16 -7 0 -8 -3 0 -8 14 -10 14 -273 -1
-264 -5 3 -5 -1 2 -9 14 -18 13 -91 -2 -101 -7 -5 -6 -8 1 -8 13 0 13 -109 0
-129 -6 -10 -6 -12 3 -7 8 5 10 -1 6 -24 -4 -24 -2 -30 7 -24 10 6 10 4 2 -7
-6 -8 -10 -33 -9 -56 2 -27 -1 -40 -8 -36 -6 4 -7 1 -1 -8 13 -20 12 -399 -1
-391 -5 3 -5 -1 2 -9 14 -17 13 -99 -1 -99 -8 0 -8 -3 -1 -8 15 -10 15 -213 0
-204 -5 3 -5 -1 2 -9 14 -17 13 -99 -1 -99 -8 0 -8 -3 -1 -8 15 -10 15 -213 0
-204 -5 3 -5 -1 2 -9 14 -17 13 -99 -1 -99 -8 0 -8 -3 -1 -8 15 -10 15 -213 0
-204 -5 3 -5 -1 2 -9 14 -17 13 -99 -1 -99 -8 0 -8 -3 -1 -8 14 -10 15 -133 1
-125 -8 5 -8 2 0 -8 13 -17 13 -297 0 -318 -6 -10 -6 -12 3 -7 8 5 10 -1 6
-24 -4 -24 -2 -30 7 -24 10 6 10 4 2 -7 -5 -8 -10 -51 -9 -96 1 -55 -2 -80 -9
-75 -6 3 -6 -1 1 -9 14 -18 13 -91 -2 -101 -7 -5 -6 -8 1 -8 13 0 13 -109 0
-129 -6 -10 -6 -12 3 -7 8 5 10 -1 6 -24 -4 -24 -2 -30 7 -24 10 6 10 4 2 -7
-6 -8 -10 -33 -9 -56 2 -27 -1 -40 -8 -36 -6 4 -7 1 -1 -8 13 -20 12 -399 -1
-391 -5 3 -5 -1 2 -9 14 -17 13 -99 -1 -99 -8 0 -8 -3 -1 -8 14 -10 15 -65 1
-74 -8 -6 -8 -8 0 -8 7 0 11 -18 10 -44 -1 -25 1 -43 3 -40 2 2 10 -1 17 -7 8
-7 14 -7 19 1 3 6 11 8 16 5 5 -4 9 -1 9 5 0 6 5 8 13 3 18 -11 40 -13 52 -4
5 4 27 7 48 6 20 0 37 4 37 10 0 5 5 3 10 -5 5 -8 10 -10 10 -4 0 5 10 11 23
11 19 1 39 4 97 16 8 1 20 5 25 8 6 3 22 5 38 4 15 0 27 3 27 8 0 5 7 7 15 3
8 -3 15 -1 15 4 0 5 9 7 20 5 11 -2 20 0 20 5 0 5 6 7 14 4 7 -3 21 2 30 11
10 10 16 12 16 4 0 -8 4 -8 16 1 8 8 28 15 44 17 16 1 45 12 65 23 20 11 33
15 29 8 -4 -7 2 -5 14 5 11 11 26 16 31 12 6 -3 11 -1 11 4 0 6 9 11 20 11 11
0 20 5 20 11 0 6 7 9 15 5 8 -3 15 0 15 6 0 6 3 9 6 5 4 -3 13 1 21 9 8 8 18
12 22 10 3 -2 18 5 31 16 14 11 20 17 13 14 -8 -5 -8 2 2 21 8 15 11 30 7 33
-10 7 -9 34 3 42 6 5 4 8 -4 8 -11 0 -12 3 -4 11 6 6 8 23 3 45 -5 19 -4 32 1
28 5 -3 9 0 9 5 0 6 -3 11 -7 11 -5 0 -8 11 -8 25 0 14 2 25 5 25 3 0 6 9 6
20 0 11 -3 20 -7 20 -10 0 -5 34 6 42 6 5 5 8 -2 8 -9 0 -10 7 -3 26 7 16 7
23 0 19 -14 -9 -12 9 2 23 9 9 9 12 -3 12 -12 0 -12 2 1 10 12 8 12 10 1 10
-10 0 -11 3 -2 14 8 9 8 16 2 20 -7 5 -7 15 -1 31 5 14 6 25 2 25 -4 0 -8 9
-8 20 0 11 5 20 11 20 5 0 4 4 -4 9 -8 5 -9 11 -3 15 6 3 7 20 2 41 -5 20 -4
33 1 29 5 -3 9 0 9 5 0 6 -3 11 -7 11 -5 0 -8 11 -8 25 0 14 2 25 5 25 3 0 6
9 6 20 0 11 -3 20 -7 20 -10 0 -5 34 6 42 6 5 5 8 -4 8 -11 0 -11 3 -1 15 7 8
8 15 3 15 -5 0 -9 9 -9 20 0 11 5 20 11 20 5 0 4 4 -4 9 -8 5 -9 11 -3 15 6 3
7 20 2 41 -5 20 -4 33 1 29 5 -3 9 0 9 5 0 6 -3 11 -7 11 -5 0 -8 11 -8 25 0
14 2 25 5 25 3 0 6 9 6 20 0 11 -3 20 -7 20 -10 0 -5 34 6 42 6 5 5 8 -2 8 -9
0 -10 7 -3 26 7 16 7 23 0 19 -14 -9 -12 9 2 23 9 9 9 12 -2 12 -13 0 -13 2 0
10 12 8 12 10 1 10 -10 0 -11 3 -2 14 8 9 8 16 2 20 -7 5 -7 15 -1 31 5 14 6
25 2 25 -4 0 -8 9 -8 20 0 11 5 20 11 20 5 0 4 4 -4 9 -8 5 -9 11 -3 15 6 3 7
20 2 41 -5 20 -4 33 1 29 5 -3 9 0 9 5 0 6 -3 11 -7 11 -5 0 -8 11 -8 25 0 14
2 25 5 25 3 0 6 9 6 20 0 11 -3 20 -7 20 -10 0 -5 34 6 42 6 5 5 8 -2 8 -9 0
-10 7 -3 26 7 16 7 23 0 19 -14 -9 -12 9 2 23 9 9 9 12 -2 12 -13 0 -13 2 0
10 12 8 12 10 1 10 -10 0 -11 3 -2 14 8 9 8 16 2 20 -7 5 -7 15 -1 31 5 14 6
25 2 25 -4 0 -8 9 -8 20 0 11 5 20 11 20 5 0 4 4 -4 9 -8 5 -9 11 -3 15 6 3 7
20 2 41 -5 20 -4 33 1 29 5 -3 9 0 9 5 0 6 -3 11 -7 11 -5 0 -8 11 -8 25 0 14
2 25 5 25 3 0 6 9 6 20 0 11 -3 20 -7 20 -10 0 -5 34 6 42 6 5 5 8 -3 8 -10 0
-10 5 -2 20 8 15 8 20 -2 20 -10 0 -10 2 1 9 9 6 10 11 2 15 -7 5 -7 15 -1 32
7 18 7 23 -1 18 -8 -4 -8 0 0 15 9 16 9 21 0 21 -8 0 -8 4 1 15 7 8 9 15 4 15
-5 0 -9 11 -9 25 0 14 2 25 5 25 3 0 6 9 6 20 0 11 -3 20 -7 20 -10 0 -5 34 6
42 6 5 5 8 -2 8 -9 0 -10 7 -3 26 7 16 7 23 0 19 -14 -9 -12 9 2 23 9 9 9 12
-2 12 -13 0 -13 2 0 10 12 8 12 10 1 10 -10 0 -11 3 -2 14 8 9 8 16 2 20 -7 5
-7 15 -1 31 5 14 6 25 2 25 -4 0 -8 9 -8 20 0 11 5 20 11 20 5 0 4 4 -4 9 -8
5 -9 11 -3 15 6 3 7 20 2 41 -5 20 -4 33 1 29 5 -3 9 0 9 5 0 6 -3 11 -7 11
-5 0 -8 11 -8 25 0 14 2 25 5 25 3 0 6 9 6 20 0 11 -3 20 -7 20 -10 0 -5 34 6
42 6 5 5 8 -2 8 -9 0 -10 7 -3 26 7 16 7 23 0 19 -14 -9 -12 9 2 23 9 9 9 12
-2 12 -13 0 -13 2 0 10 12 8 12 10 1 10 -10 0 -11 3 -2 14 8 9 8 16 2 20 -7 5
-7 15 -1 31 5 14 6 25 2 25 -4 0 -8 9 -8 20 0 11 5 20 11 20 5 0 4 4 -4 9 -8
5 -9 11 -3 15 6 3 7 20 2 41 -5 20 -4 33 1 29 5 -3 9 0 9 5 0 6 -3 11 -7 11
-5 0 -8 11 -8 25 0 14 2 25 5 25 3 0 6 9 6 20 0 11 -3 20 -7 20 -10 0 -5 34 6
42 6 5 5 8 -4 8 -11 0 -11 3 -1 15 7 8 8 15 3 15 -5 0 -9 9 -9 20 0 11 5 20
11 20 5 0 4 4 -4 9 -8 5 -9 11 -3 15 6 3 7 20 2 41 -5 20 -4 33 1 29 5 -3 9 0
9 5 0 6 -3 11 -7 11 -5 0 -8 11 -8 25 0 14 2 25 5 25 3 0 6 9 6 20 0 11 -3 20
-7 20 -4 0 -7 6 -6 13 1 36 -4 49 -18 44 -8 -4 -17 -2 -20 4 -4 5 -12 6 -18 2
-18 -11 -101 -10 -109 2 -5 7 -8 7 -8 0 0 -12 -44 -14 -55 -3 -4 4 -17 3 -27
-3 -14 -8 -23 -8 -31 0 -7 7 -16 7 -30 0 -13 -8 -22 -8 -30 0 -7 7 -16 7 -29
0 -13 -7 -23 -7 -32 0 -7 6 -16 8 -19 4 -12 -12 -58 -12 -51 -1 5 7 2 8 -7 3
-21 -14 -60 -15 -53 -3 5 7 2 8 -7 3 -21 -14 -60 -15 -53 -3 5 7 2 8 -7 3 -21
-14 -60 -15 -53 -3 5 7 2 8 -7 3 -21 -14 -60 -15 -53 -3 5 7 2 8 -7 2 -20 -12
-73 -12 -81 0 -5 8 -8 8 -8 1 0 -12 -39 -14 -56 -3 -6 4 -14 5 -17 1z"/>
<path d="M2350 5493 c0 -4 -99 -8 -220 -7 -152 0 -220 -3 -221 -10 -1 -6 -2
-677 -3 -1491 -2 -1030 1 -1484 8 -1494 8 -11 8 -13 -1 -7 -14 8 -17 -3 -7
-28 3 -9 10 -13 15 -10 5 3 9 0 9 -5 0 -6 6 -11 13 -12 6 0 34 -11 62 -24 27
-13 53 -21 56 -19 4 2 9 -3 13 -11 3 -9 12 -12 22 -8 12 4 15 3 10 -5 -4 -8
-2 -10 7 -6 8 3 22 -2 31 -11 10 -11 16 -12 16 -4 0 8 5 8 18 -3 9 -8 27 -14
39 -13 12 1 20 -2 17 -7 -4 -7 26 -13 49 -9 4 0 7 -3 7 -7 0 -5 6 -9 13 -10
52 -6 75 -10 84 -15 6 -4 23 -8 37 -9 14 -1 26 -6 26 -10 0 -4 9 -5 20 -3 11
2 20 0 20 -6 0 -5 5 -9 11 -9 5 0 7 6 3 13 -4 6 3 3 16 -8 13 -11 20 -14 15
-6 -6 10 -2 11 16 6 13 -5 31 -8 39 -9 8 -1 18 -5 22 -11 5 -6 8 -5 8 3 0 8 5
10 13 5 6 -4 21 -8 32 -8 11 0 26 -4 33 -8 7 -5 12 -3 12 5 0 8 3 9 8 3 9 -13
62 -14 62 -1 0 5 7 1 15 -10 8 -10 15 -14 15 -8 0 7 11 9 28 6 15 -2 24 -2 20
2 -3 4 -2 21 2 37 5 16 5 29 1 29 -4 0 -8 7 -8 15 0 8 4 15 9 15 5 0 5 7 0 17
-6 9 -6 29 -2 45 5 15 5 28 1 28 -4 0 -8 7 -8 15 0 8 4 15 9 15 5 0 5 7 0 17
-6 9 -6 29 -2 45 5 15 5 28 1 28 -4 0 -8 7 -8 15 0 8 4 15 9 15 5 0 5 7 0 17
-6 9 -6 29 -2 45 6 18 5 28 -2 28 -7 0 -6 5 1 14 8 9 8 16 2 20 -7 5 -7 15 -1
31 7 17 6 25 -1 25 -8 0 -7 5 1 15 8 10 9 15 1 15 -7 0 -8 8 -1 25 7 18 6 25
-3 25 -8 0 -8 3 2 9 9 6 10 11 2 15 -7 5 -7 15 -1 31 7 17 6 25 -1 25 -8 0 -7
5 1 15 8 10 9 15 1 15 -7 0 -8 8 -1 25 5 14 6 25 2 25 -4 0 -7 13 -8 30 -1 16
3 27 8 24 10 -7 6 19 -4 27 -4 3 -4 19 1 37 5 18 6 32 2 32 -4 0 -8 7 -8 15 0
8 4 15 9 15 5 0 5 7 0 17 -6 9 -6 29 -2 45 5 15 5 28 1 28 -4 0 -8 7 -8 15 0
8 4 15 9 15 5 0 5 7 0 17 -6 9 -6 29 -2 45 5 15 5 28 1 28 -4 0 -8 7 -8 15 0
8 4 15 9 15 5 0 5 7 0 17 -6 9 -6 29 -2 45 5 15 5 28 1 28 -4 0 -8 7 -8 15 0
8 4 15 9 15 5 0 5 7 0 17 -6 9 -6 29 -2 45 6 18 5 28 -2 28 -7 0 -6 5 1 14 8
9 8 16 2 20 -7 5 -7 15 -1 31 7 17 6 25 -1 25 -8 0 -7 5 1 15 8 10 9 15 1 15
-7 0 -8 8 -1 25 7 18 6 25 -3 25 -8 0 -8 3 2 9 9 6 10 11 2 15 -7 5 -7 15 -1
31 7 17 6 25 -1 25 -8 0 -7 5 1 15 8 10 9 15 1 15 -7 0 -8 8 -1 25 5 14 6 25
2 25 -4 0 -7 13 -8 30 -1 16 3 27 8 24 10 -7 6 19 -4 27 -4 3 -4 19 1 37 5 18
6 32 2 32 -4 0 -8 7 -8 15 0 8 4 15 9 15 5 0 5 7 0 17 -6 9 -6 29 -2 45 5 15
5 28 1 28 -4 0 -8 7 -8 15 0 8 4 15 9 15 5 0 5 7 0 17 -6 9 -6 29 -2 45 5 15
5 28 1 28 -4 0 -8 7 -8 15 0 8 4 15 9 15 5 0 5 7 0 17 -6 9 -6 29 -2 45 5 15
5 28 1 28 -4 0 -8 7 -8 15 0 8 4 15 9 15 5 0 5 7 0 17 -6 9 -6 29 -2 45 5 15
6 28 2 28 -4 0 -7 16 -8 35 0 18 3 32 8 29 10 -7 6 19 -4 27 -4 3 -4 19 1 37
5 18 6 32 2 32 -4 0 -8 7 -8 15 0 8 4 15 9 15 5 0 5 7 0 17 -6 9 -6 29 -2 45
5 15 5 28 1 28 -4 0 -8 7 -8 15 0 8 4 15 9 15 5 0 5 7 0 17 -6 9 -6 29 -2 45
5 15 5 28 1 28 -4 0 -8 7 -8 15 0 8 4 15 9 15 5 0 5 7 0 17 -6 9 -6 29 -2 45
5 15 5 28 1 28 -4 0 -8 7 -8 15 0 8 4 15 9 15 5 0 5 7 0 17 -6 9 -6 29 -2 45
6 18 5 28 -2 28 -7 0 -6 5 1 14 8 9 8 16 2 20 -7 5 -7 15 -1 31 7 17 6 25 -1
25 -8 0 -7 5 1 15 8 10 9 15 1 15 -7 0 -8 8 -1 25 7 17 6 25 -1 25 -8 0 -7 5
1 15 8 10 9 15 1 15 -7 0 -8 8 -1 25 7 17 6 25 -1 25 -8 0 -7 5 1 15 15 18 19
17 -105 19 -55 1 -106 5 -113 10 -6 4 -12 3 -12 -2 0 -10 -92 -8 -109 2 -6 4
-11 3 -11 -2 0 -10 -132 -8 -149 2 -6 4 -11 4 -11 -1z"/>
<path d="M820 4935 c-9 -11 -9 -15 -1 -15 7 0 9 -5 5 -12 -10 -16 -11 -138 -2
-166 5 -14 4 -21 -1 -17 -6 3 -9 -4 -8 -15 1 -11 5 -20 10 -20 5 0 4 -7 -3
-15 -9 -11 -10 -18 -1 -28 6 -8 8 -17 4 -20 -11 -12 -12 -57 -1 -57 6 0 6 -6
-2 -15 -9 -11 -10 -18 -1 -28 6 -8 8 -17 4 -20 -11 -11 -12 -57 -2 -57 6 0 7
-5 3 -12 -10 -16 -11 -189 -1 -195 4 -2 4 -10 0 -16 -11 -19 -12 -57 -1 -57 6
0 5 -6 -2 -15 -10 -12 -10 -19 -2 -27 7 -7 8 -17 2 -28 -5 -9 -5 -22 0 -30 5
-8 4 -22 -2 -34 -8 -15 -8 -21 1 -24 9 -3 9 -7 1 -18 -7 -7 -8 -19 -4 -26 11
-17 13 -48 3 -42 -4 2 -7 -5 -6 -16 1 -11 5 -20 10 -20 5 0 4 -7 -3 -15 -9
-11 -10 -18 -1 -28 6 -8 8 -17 4 -20 -11 -12 -12 -57 -1 -57 6 0 6 -6 -2 -15
-9 -11 -10 -19 -1 -28 8 -10 7 -17 -1 -25 -9 -9 -9 -12 1 -12 7 0 9 -4 6 -10
-3 -5 0 -20 7 -32 6 -13 13 -29 14 -37 2 -8 6 -17 11 -20 4 -3 9 -13 11 -21 2
-8 12 -31 22 -52 10 -20 17 -38 14 -41 -2 -2 2 -10 11 -17 8 -7 15 -21 15 -30
0 -10 5 -20 10 -22 6 -2 12 -13 13 -25 0 -12 5 -19 9 -17 4 3 8 0 8 -6 0 -6
12 -29 27 -53 15 -23 26 -45 25 -49 -1 -5 3 -8 9 -8 5 0 7 -4 4 -10 -3 -5 -3
-10 2 -10 10 0 60 -73 53 -76 -3 -1 9 -15 25 -30 17 -15 29 -32 27 -36 -1 -4
3 -8 10 -8 6 0 9 -3 6 -6 -4 -3 7 -18 23 -33 16 -16 29 -31 29 -36 0 -4 13
-19 30 -35 16 -15 26 -30 23 -34 -3 -3 1 -6 11 -6 9 0 14 -4 11 -10 -3 -5 2
-10 11 -10 10 0 15 -3 12 -6 -7 -6 61 -74 74 -74 5 0 7 -3 5 -7 -5 -8 15 -31
30 -36 5 -1 7 -5 5 -9 -1 -5 4 -8 12 -8 8 0 21 -8 28 -18 7 -11 23 -24 36 -31
12 -7 20 -16 17 -22 -4 -5 3 -9 14 -9 12 0 21 -4 21 -8 0 -5 11 -15 25 -22 13
-7 22 -17 19 -22 -3 -4 4 -8 15 -8 12 0 21 -4 21 -10 0 -5 6 -10 14 -10 8 0
16 -7 20 -15 3 -8 12 -15 21 -15 8 0 15 -5 15 -11 0 -6 7 -8 16 -5 8 3 12 2 9
-4 -3 -6 0 -10 9 -10 8 0 16 -6 19 -12 2 -7 8 -10 12 -6 11 10 11 2392 0 2395
-4 1 -11 7 -16 14 -6 10 -11 10 -23 0 -9 -8 -16 -9 -16 -4 0 5 -20 9 -45 9
-25 0 -45 -3 -45 -7 0 -3 -7 -6 -15 -6 -8 0 -15 4 -15 8 0 6 -54 5 -85 -1 -5
-1 -14 -1 -20 0 -26 7 -61 4 -67 -5 -5 -6 -8 -6 -8 1 0 12 -29 12 -48 0 -6 -4
-12 -3 -12 1 0 5 -29 9 -65 8 -36 0 -65 -3 -65 -6 0 -3 -7 -6 -15 -6 -8 0 -15
4 -15 8 0 6 -54 5 -85 -1 -5 -1 -14 -1 -20 0 -26 7 -61 4 -67 -5 -5 -6 -8 -6
-8 1 0 12 -29 12 -48 0 -6 -4 -12 -3 -12 2 0 10 -77 8 -87 -2 -4 -3 -12 -1
-18 4 -9 7 -16 6 -25 -5z"/>
<path d="M4078 4572 c-11 -13 -11 -14 2 -7 12 7 13 6 3 -6 -7 -9 -9 -20 -3
-29 5 -9 5 -19 -2 -27 -8 -10 -7 -13 3 -13 9 0 10 -3 4 -8 -14 -10 -15 -42 -2
-42 7 0 7 -4 -1 -12 -8 -8 -9 -15 -1 -25 9 -9 8 -13 0 -13 -8 0 -9 -5 -1 -19
7 -14 7 -22 -1 -27 -8 -4 -7 -9 2 -15 8 -5 9 -9 4 -9 -6 0 -11 -9 -11 -20 0
-11 4 -20 8 -20 4 0 3 -11 -2 -25 -6 -15 -6 -26 0 -30 6 -4 7 -13 1 -24 -6
-10 -6 -23 -1 -31 5 -8 4 -22 -1 -32 -5 -10 -6 -18 -1 -18 10 0 9 -30 -1 -47
-4 -6 -3 -14 2 -18 6 -3 7 -15 1 -29 -5 -15 -5 -27 3 -35 7 -7 7 -11 1 -11 -6
0 -11 -7 -11 -15 0 -8 5 -15 11 -15 6 0 5 -4 -3 -9 -9 -6 -10 -11 -2 -15 8 -5
8 -13 1 -27 -8 -13 -7 -19 0 -19 7 0 7 -7 -1 -21 -8 -16 -8 -20 1 -14 9 6 9 2
1 -14 -9 -16 -9 -21 1 -21 8 0 9 -3 3 -8 -11 -8 -13 -47 -3 -58 4 -4 3 -14 -2
-23 -5 -10 -5 -23 0 -31 5 -8 4 -22 -1 -32 -7 -12 -6 -18 1 -18 7 0 8 -6 0
-19 -5 -11 -6 -22 -2 -25 10 -6 9 -36 -2 -54 -4 -7 -2 -12 6 -12 8 0 9 -3 3
-8 -13 -9 -15 -42 -3 -42 7 0 6 -5 -1 -13 -8 -10 -7 -17 1 -25 9 -9 9 -12 0
-12 -9 0 -10 -5 -2 -19 7 -14 7 -22 -1 -27 -8 -4 -7 -9 2 -15 8 -5 9 -9 4 -9
-6 0 -11 -9 -11 -20 0 -11 4 -20 8 -20 5 0 4 -9 -2 -19 -5 -11 -6 -22 -2 -25
10 -6 9 -36 -2 -54 -4 -7 -2 -12 6 -12 8 0 9 -3 3 -8 -13 -9 -15 -42 -3 -42 7
0 6 -5 -1 -13 -8 -10 -7 -17 1 -25 9 -9 9 -12 0 -12 -9 0 -10 -5 -2 -19 7 -14
7 -22 -1 -27 -8 -4 -7 -9 2 -15 8 -5 9 -9 4 -9 -6 0 -11 -9 -11 -20 0 -11 4
-20 8 -20 4 0 3 -11 -2 -25 -6 -15 -6 -26 0 -30 6 -4 7 -13 1 -24 -6 -10 -6
-23 -1 -31 5 -8 4 -22 -1 -32 -5 -10 -6 -18 -1 -18 10 0 9 -30 -1 -47 -4 -6
-3 -14 2 -18 6 -3 7 -15 1 -29 -5 -15 -5 -27 3 -35 7 -7 7 -11 1 -11 -6 0 -11
-7 -11 -15 0 -8 4 -15 9 -15 4 0 8 -5 8 -11 0 -5 -6 -7 -12 -3 -7 4 -4 -3 7
-15 16 -19 17 -24 5 -31 -10 -6 -11 -10 -3 -10 7 0 10 -7 7 -15 -4 -8 -3 -22
0 -31 6 -15 8 -15 26 1 11 10 20 15 20 11 0 -4 7 -1 15 6 34 30 45 38 45 31 0
-4 7 2 15 13 8 10 15 15 15 9 0 -7 3 -7 8 0 17 24 100 84 107 77 3 -4 5 -2 3
3 -2 6 7 20 20 33 12 12 22 19 22 15 0 -3 18 13 40 37 22 24 40 41 40 37 0 -3
13 6 29 21 15 15 27 29 26 32 -5 8 22 29 29 23 3 -4 6 -1 6 6 0 6 14 25 30 41
17 16 30 34 30 40 0 6 5 8 10 5 9 -6 14 8 11 28 -1 5 2 7 6 4 5 -2 16 4 26 15
9 10 15 18 12 18 -6 0 10 21 39 50 11 11 17 20 13 20 -6 0 13 26 41 56 7 8 11
14 7 14 -4 0 0 7 7 15 30 34 38 45 31 45 -4 0 2 7 13 16 10 8 12 12 4 8 -8 -4
-4 5 9 19 14 15 21 27 16 27 -5 0 0 7 11 16 10 8 12 12 4 8 -8 -4 -4 5 9 19
14 15 22 30 18 33 -3 3 3 15 13 27 11 11 17 24 14 28 -2 4 4 12 13 18 14 8 15
10 3 11 -10 0 -11 3 -4 8 16 11 45 74 31 66 -7 -3 -4 1 5 9 10 8 16 16 13 19
-3 2 4 22 14 44 23 47 33 124 17 124 -7 0 -8 3 -1 8 13 9 13 145 0 154 -7 5
-7 8 0 8 13 0 13 150 0 150 -7 0 -7 3 0 8 6 4 10 40 10 80 0 41 -4 72 -10 72
-7 0 -6 3 0 8 13 9 13 145 0 154 -7 5 -7 8 0 8 6 0 10 31 9 78 -3 114 -1 107
-21 91 -11 -10 -14 -10 -9 -1 8 13 -19 13 -41 -1 -6 -4 -14 -3 -17 2 -7 10
-86 9 -103 -2 -6 -4 -14 -3 -17 2 -7 10 -86 9 -103 -2 -6 -4 -14 -3 -17 2 -7
10 -86 9 -103 -2 -6 -4 -14 -3 -17 2 -7 10 -86 9 -103 -2 -6 -4 -14 -3 -17 2
-7 10 -86 9 -103 -2 -6 -4 -14 -3 -17 2 -6 10 -86 9 -102 -1 -6 -4 -14 -4 -18
0 -12 12 -76 11 -76 -2 0 -7 -3 -7 -8 -1 -11 16 -51 14 -64 -3z"/>
<path d="M5500 2246 c0 -2 8 -10 18 -17 15 -13 16 -12 3 4 -13 16 -21 21 -21
13z"/>
</g>
</svg>
